# xmcd
#
# Track frame offsets: 
#        150
#        15306
#        29957
#        47696
#        69040
#        85432
#        101426
#        125698
#        145426
#        164213
#        181494
#
# Disc length: 2673 seconds
#
# Revision: 0
# Processed by: cddbd v1.5.2PL0 Copyright (c) Steve Scherf et al.
# Submitted via: ExactAudioCopy v1.3
#
DISCID=9c0a6f0b
DTITLE=John Michael Montgomery - Time Flies
DYEAR=2008
DGENRE=Country
TTITLE0=What Did I Do
TTITLE1=Let's Get Lost
TTITLE2=If You Ever Went Away
TTITLE3=Forever
TTITLE4=With My Shirt On
TTITLE5=Mad Cowboy Disease
TTITLE6=Loving And Letting Go
TTITLE7=Fly On
TTITLE8=Drunkard's Prayer
TTITLE9=All In A Day
TTITLE10=Brothers 'til The End
EXTD=
EXTT0=
EXTT1=
EXTT2=
EXTT3=
EXTT4=
EXTT5=
EXTT6=
EXTT7=
EXTT8=
EXTT9=
EXTT10=
PLAYORDER=
